STARTFONT 2.1
FONT -BradanLaneSTUDIO-Mx437 HP 100LX 6x8-Book-R-Normal--8-50-128-128-M-50-ISO8859-1
SIZE 8 75 75
FONTBOUNDINGBOX 6 7 0 0
COMMENT "Generated by fontforge, http://fontforge.sourceforge.net"
COMMENT "Outline (vector) version by VileR, 2020, reduced to 5x7 by Bradan Lane"
STARTPROPERTIES 41
FONTBOUNDINGBOX "6 8 0 0"
FOUNDRY "BradanLaneSTUDIO"
FAMILY_NAME "Mx437 HP 100LX 6x8"
WEIGHT_NAME "Book"
SLANT "R"
SETWIDTH_NAME "Normal"
ADD_STYLE_NAME ""
PIXEL_SIZE 8
POINT_SIZE 50
RESOLUTION_X 128
RESOLUTION_Y 128
SPACING "M"
AVERAGE_WIDTH 50
CHARSET_REGISTRY "ISO8859"
CHARSET_ENCODING "1"
FONTNAME_REGISTRY ""
CHARSET_COLLECTIONS "ISOLatin1Encoding"
FONT_NAME "100LX5x7"
FACE_NAME "Mx437 HP 100LX 6x8"
COPYRIGHT "Outline (vector) version by VileR, 2020, reduced to 5x7 by Bradan Lane"
FONT_VERSION "v2.2-2020-11"
FONT_ASCENT 8
FONT_DESCENT 0
UNDERLINE_POSITION 0
UNDERLINE_THICKNESS 1
X_HEIGHT 4
CAP_HEIGHT 6
RAW_ASCENT 1000
RAW_DESCENT 0
NORM_SPACE 5
RELATIVE_WEIGHT 40
RELATIVE_SETWIDTH 50
SUPERSCRIPT_X 0
SUPERSCRIPT_Y 4
SUPERSCRIPT_SIZE 8
SUBSCRIPT_X 0
SUBSCRIPT_Y 4
SUBSCRIPT_SIZE 8
FIGURE_WIDTH 5
AVG_LOWERCASE_WIDTH 50
AVG_UPPERCASE_WIDTH 50
ENDPROPERTIES
CHARS 55
STARTCHAR space
ENCODING 32
SWIDTH 649 0
DWIDTH 5 0
BBX 1 1 0 0
BITMAP
00
ENDCHAR
STARTCHAR exclam
ENCODING 33
SWIDTH 649 0
DWIDTH 5 0
BBX 1 7 2 0
BITMAP
80
80
80
00
80
80
80
ENDCHAR
STARTCHAR quotedbl
ENCODING 34
SWIDTH 649 0
DWIDTH 5 0
BBX 3 3 2 4
BITMAP
A0
A0
A0
ENDCHAR
STARTCHAR dollar
ENCODING 36
SWIDTH 649 0
DWIDTH 5 0
BBX 5 7 0 0
BITMAP
70
A0
A0
50
28
28
70
ENDCHAR
STARTCHAR quotesingle
ENCODING 39
SWIDTH 649 0
DWIDTH 5 0
BBX 1 3 4 4
BITMAP
80
80
80
ENDCHAR
STARTCHAR parenleft
ENCODING 40
SWIDTH 649 0
DWIDTH 5 0
BBX 2 7 3 0
BITMAP
40
80
80
00
80
80
40
ENDCHAR
STARTCHAR parenright
ENCODING 41
SWIDTH 649 0
DWIDTH 5 0
BBX 2 7 0 0
BITMAP
80
40
40
00
40
40
80
ENDCHAR
STARTCHAR asterisk
ENCODING 42
SWIDTH 649 0
DWIDTH 5 0
BBX 5 7 0 0
BITMAP
D8
50
50
D8
50
50
D8
ENDCHAR
STARTCHAR plus
ENCODING 43
SWIDTH 649 0
DWIDTH 5 0
BBX 5 5 0 1
BITMAP
20
20
D8
20
20
ENDCHAR
STARTCHAR hyphen
ENCODING 45
SWIDTH 649 0
DWIDTH 5 0
BBX 5 1 0 3
BITMAP
D8
ENDCHAR
STARTCHAR slash
ENCODING 47
SWIDTH 649 0
DWIDTH 5 0
BBX 5 7 0 0
BITMAP
08
10
10
00
40
40
80
ENDCHAR
STARTCHAR zero
ENCODING 48
SWIDTH 649 0
DWIDTH 5 0
BBX 5 7 0 0
BITMAP
70
88
88
88
88
88
70
ENDCHAR
STARTCHAR one
ENCODING 49
SWIDTH 649 0
DWIDTH 5 0
BBX 1 7 2 0
BITMAP
80
80
80
00
80
80
80
ENDCHAR
STARTCHAR two
ENCODING 50
SWIDTH 649 0
DWIDTH 5 0
BBX 5 7 0 0
BITMAP
70
08
08
50
80
80
70
ENDCHAR
STARTCHAR three
ENCODING 51
SWIDTH 649 0
DWIDTH 5 0
BBX 4 7 1 0
BITMAP
E0
10
10
A0
10
10
E0
ENDCHAR
STARTCHAR four
ENCODING 52
SWIDTH 649 0
DWIDTH 5 0
BBX 5 7 0 0
BITMAP
88
88
88
50
08
08
08
ENDCHAR
STARTCHAR five
ENCODING 53
SWIDTH 649 0
DWIDTH 5 0
BBX 5 7 0 0
BITMAP
70
80
80
50
08
08
70
ENDCHAR
STARTCHAR six
ENCODING 54
SWIDTH 649 0
DWIDTH 5 0
BBX 5 7 0 0
BITMAP
70
80
80
50
88
88
70
ENDCHAR
STARTCHAR seven
ENCODING 55
SWIDTH 649 0
DWIDTH 5 0
BBX 5 7 0 0
BITMAP
F8
08
10
00
20
20
20
ENDCHAR
STARTCHAR eight
ENCODING 56
SWIDTH 649 0
DWIDTH 5 0
BBX 5 7 0 0
BITMAP
70
88
88
50
88
88
70
ENDCHAR
STARTCHAR nine
ENCODING 57
SWIDTH 649 0
DWIDTH 5 0
BBX 5 7 0 0
BITMAP
70
88
88
50
08
08
70
ENDCHAR
STARTCHAR less
ENCODING 60
SWIDTH 649 0
DWIDTH 5 0
BBX 3 7 2 0
BITMAP
20
40
40
80
40
40
20
ENDCHAR
STARTCHAR greater
ENCODING 62
SWIDTH 649 0
DWIDTH 5 0
BBX 3 7 0 0
BITMAP
80
40
40
20
40
40
80
ENDCHAR
STARTCHAR question
ENCODING 63
SWIDTH 649 0
DWIDTH 5 0
BBX 5 7 0 0
BITMAP
70
88
90
00
20
20
20
ENDCHAR
STARTCHAR A
ENCODING 65
SWIDTH 649 0
DWIDTH 5 0
BBX 5 7 0 0
BITMAP
70
88
88
D8
88
88
88
ENDCHAR
STARTCHAR B
ENCODING 66
SWIDTH 649 0
DWIDTH 5 0
BBX 5 7 0 0
BITMAP
F0
88
88
D0
88
88
F0
ENDCHAR
STARTCHAR C
ENCODING 67
SWIDTH 649 0
DWIDTH 5 0
BBX 4 7 0 0
BITMAP
70
80
80
80
80
80
70
ENDCHAR
STARTCHAR D
ENCODING 68
SWIDTH 649 0
DWIDTH 5 0
BBX 5 7 0 0
BITMAP
F0
88
88
88
88
88
F0
ENDCHAR
STARTCHAR E
ENCODING 69
SWIDTH 649 0
DWIDTH 5 0
BBX 5 7 0 0
BITMAP
F8
80
80
D0
80
80
F8
ENDCHAR
STARTCHAR F
ENCODING 70
SWIDTH 649 0
DWIDTH 5 0
BBX 5 7 0 0
BITMAP
F8
80
80
D0
80
80
80
ENDCHAR
STARTCHAR G
ENCODING 71
SWIDTH 649 0
DWIDTH 5 0
BBX 5 7 0 0
BITMAP
70
80
80
98
88
88
70
ENDCHAR
STARTCHAR H
ENCODING 72
SWIDTH 649 0
DWIDTH 5 0
BBX 5 7 0 0
BITMAP
88
88
88
D8
88
88
88
ENDCHAR
STARTCHAR I
ENCODING 73
SWIDTH 649 0
DWIDTH 5 0
BBX 3 7 1 0
BITMAP
E0
40
40
00
40
40
E0
ENDCHAR
STARTCHAR J
ENCODING 74
SWIDTH 649 0
DWIDTH 5 0
BBX 5 7 0 0
BITMAP
08
08
08
08
88
88
70
ENDCHAR
STARTCHAR K
ENCODING 75
SWIDTH 649 0
DWIDTH 5 0
BBX 5 7 0 0
BITMAP
88
98
90
C0
90
98
88
ENDCHAR
STARTCHAR L
ENCODING 76
SWIDTH 649 0
DWIDTH 5 0
BBX 5 7 0 0
BITMAP
80
80
80
80
80
80
F8
ENDCHAR
STARTCHAR M
ENCODING 77
SWIDTH 649 0
DWIDTH 5 0
BBX 5 7 0 0
BITMAP
88
D8
D8
88
88
88
88
ENDCHAR
STARTCHAR N
ENCODING 78
SWIDTH 649 0
DWIDTH 5 0
BBX 5 7 0 0
BITMAP
88
C8
C8
88
98
98
88
ENDCHAR
STARTCHAR O
ENCODING 79
SWIDTH 649 0
DWIDTH 5 0
BBX 5 7 0 0
BITMAP
70
88
88
88
88
88
70
ENDCHAR
STARTCHAR P
ENCODING 80
SWIDTH 649 0
DWIDTH 5 0
BBX 5 7 0 0
BITMAP
F0
88
88
D0
80
80
80
ENDCHAR
STARTCHAR Q
ENCODING 81
SWIDTH 649 0
DWIDTH 5 0
BBX 5 7 0 0
BITMAP
70
88
88
88
98
90
60
ENDCHAR
STARTCHAR R
ENCODING 82
SWIDTH 649 0
DWIDTH 5 0
BBX 5 7 0 0
BITMAP
F0
88
88
C0
90
98
88
ENDCHAR
STARTCHAR S
ENCODING 83
SWIDTH 649 0
DWIDTH 5 0
BBX 5 7 0 0
BITMAP
70
80
80
50
08
08
70
ENDCHAR
STARTCHAR T
ENCODING 84
SWIDTH 649 0
DWIDTH 5 0
BBX 5 7 0 0
BITMAP
F8
20
20
00
20
20
20
ENDCHAR
STARTCHAR U
ENCODING 85
SWIDTH 649 0
DWIDTH 5 0
BBX 5 7 0 0
BITMAP
88
88
88
88
88
88
70
ENDCHAR
STARTCHAR V
ENCODING 86
SWIDTH 649 0
DWIDTH 5 0
BBX 5 7 0 0
BITMAP
88
88
88
48
28
18
08
ENDCHAR
STARTCHAR W
ENCODING 87
SWIDTH 649 0
DWIDTH 5 0
BBX 5 7 0 0
BITMAP
88
88
88
88
D8
D8
88
ENDCHAR
STARTCHAR X
ENCODING 88
SWIDTH 649 0
DWIDTH 5 0
BBX 5 7 0 0
BITMAP
88
D8
50
00
50
D8
88
ENDCHAR
STARTCHAR Y
ENCODING 89
SWIDTH 649 0
DWIDTH 5 0
BBX 5 7 0 0
BITMAP
88
D8
50
00
20
20
20
ENDCHAR
STARTCHAR Z
ENCODING 90
SWIDTH 649 0
DWIDTH 5 0
BBX 5 7 0 0
BITMAP
F0
08
10
20
40
80
78
ENDCHAR
STARTCHAR bracketleft
ENCODING 91
SWIDTH 649 0
DWIDTH 5 0
BBX 3 7 1 0
BITMAP
E0
80
80
00
80
80
E0
ENDCHAR
STARTCHAR backslash
ENCODING 92
SWIDTH 649 0
DWIDTH 5 0
BBX 5 7 0 0
BITMAP
80
40
40
00
10
10
08
ENDCHAR
STARTCHAR bracketright
ENCODING 93
SWIDTH 649 0
DWIDTH 5 0
BBX 3 7 1 0
BITMAP
E0
20
20
00
20
20
E0
ENDCHAR
STARTCHAR underscore
ENCODING 95
SWIDTH 649 0
DWIDTH 5 0
BBX 6 1 0 0
BITMAP
FC
ENDCHAR
STARTCHAR braceleft
ENCODING 123
SWIDTH 1000 0
DWIDTH 5 0
BBX 3 7 2 0
BITMAP
20
40
40
E0
40
40
20
ENDCHAR
ENDFONT
